<svg width="120.142998" height="28.765999" viewBox="0 0 120.143 28.766" fill="none" xmlns="http://www.w3.org/2000/svg" xmlns:xlink="http://www.w3.org/1999/xlink">
	<desc>
			Created with Pixso.
	</desc>
	<defs>
		<radialGradient gradientTransform="translate(113.948 32.43) rotate(-167.386) scale(99.6764 318.598)" cx="0.000000" cy="0.000000" r="1.000000" id="paint_radial_1_648_0" gradientUnits="userSpaceOnUse">
			<stop stop-color="#FFFFFF"/>
			<stop offset="0.150000" stop-color="#63FFD1"/>
			<stop offset="0.446000" stop-color="#BF9DFF"/>
			<stop offset="0.682000" stop-color="#FFEA22"/>
			<stop offset="1.000000" stop-color="#FFFFFF"/>
		</radialGradient>
	</defs>
	<path id="Vector" d="M7.44 28.27L12 28.27L19.83 9.5L15.04 9.5L11.62 18.12C10.83 20.17 10.14 22.15 9.88 23.33C9.65 22.3 9 20.36 8.2 18.12L4.94 9.5L0 9.5L7.44 28.27ZM23.29 5.73C24.81 5.73 26.07 4.48 26.07 2.92C26.07 2.56 26 2.2 25.86 1.86C25.72 1.52 25.52 1.21 25.26 0.96C25 0.7 24.69 0.49 24.36 0.36C24.02 0.22 23.66 0.15 23.29 0.15C21.7 0.15 20.44 1.36 20.44 2.92C20.44 4.48 21.7 5.73 23.29 5.73ZM20.98 28.27L25.61 28.27L25.61 9.5L20.98 9.5L20.98 28.27ZM33.18 28.27L33.48 25.34C34.58 27.51 36.98 28.76 39.79 28.76C45.18 28.76 48.72 24.77 48.72 19C48.72 13.07 45.45 8.89 40.09 8.89C37.24 8.89 34.73 10.14 33.52 12.23L33.52 0L28.88 0L28.88 28.27L33.18 28.27ZM33.56 18.81C33.56 15.42 35.65 13.07 38.84 13.07C42.11 13.07 44.04 15.46 44.04 18.81C44.04 22.15 42.11 24.51 38.84 24.51C35.65 24.51 33.56 22.19 33.56 18.81ZM62.67 9.42C62 9.24 61.31 9.15 60.62 9.15C58.11 9.15 56.32 10.41 55.53 12.27L55.26 9.53L50.89 9.53L50.89 28.27L55.53 28.27L55.53 19.15C55.53 15.5 57.62 13.71 60.96 13.71L62.67 13.71L62.67 9.42ZM69.13 28.76C72.06 28.76 74.6 27.43 75.4 25.49L75.74 28.27L79.81 28.27L79.81 16.87C79.81 11.66 76.69 8.93 71.64 8.93C66.55 8.93 63.2 11.59 63.2 15.65L67.16 15.65C67.16 13.68 68.68 12.54 71.41 12.54C73.77 12.54 75.29 13.56 75.29 16.11L75.29 16.53L69.66 16.94C65.22 17.29 62.71 19.45 62.71 22.91C62.71 26.44 65.14 28.76 69.13 28.76ZM70.65 25.27C68.56 25.27 67.42 24.43 67.42 22.72C67.42 21.2 68.52 20.25 71.41 19.98L75.33 19.68L75.33 20.67C75.33 23.56 73.5 25.27 70.65 25.27ZM87.48 28.27L87.48 18.16C87.48 15.12 89.23 13.14 92.08 13.14C94.47 13.14 96.03 14.66 96.03 17.82L96.03 28.27L100.67 28.27L100.67 16.71C100.67 11.85 98.23 8.93 93.52 8.93C90.98 8.93 88.7 10.03 87.52 11.93L87.14 9.5L82.84 9.5L82.84 28.27L87.48 28.27ZM110.08 28.27L110.08 13.37L113.73 13.37L113.73 9.5L110.08 9.5L110.08 3.64L105.45 3.64L105.45 9.5L101.84 9.5L101.84 13.37L105.45 13.37L105.45 28.27L110.08 28.27ZM117.06 28.72C118.73 28.72 120.14 27.36 120.14 25.72C120.14 24.05 118.73 22.68 117.06 22.68C115.39 22.68 113.98 24.05 113.98 25.72C113.98 27.36 115.39 28.72 117.06 28.72Z" fill="url(#paint_radial_1_648_0)" fill-opacity="1.000000" fill-rule="nonzero"/>
</svg>
